<svg width="23" height="22" viewBox="0 0 23 22" fill="none" xmlns="http://www.w3.org/2000/svg">
<path d="M10.8624 0.793623C11.2449 0.114978 12.2222 0.114977 12.6047 0.793622L15.5374 5.99675C15.6801 6.24993 15.9259 6.4285 16.2107 6.48598L22.0655 7.66729C22.8291 7.82136 23.1311 8.75081 22.6039 9.32431L18.5617 13.7213C18.365 13.9353 18.2711 14.2242 18.3045 14.5129L18.9902 20.4461C19.0796 21.22 18.289 21.7944 17.5806 21.4702L12.1497 18.9846C11.8854 18.8637 11.5816 18.8637 11.3174 18.9846L5.88644 21.4702C5.17809 21.7944 4.38745 21.22 4.47689 20.4461L5.16261 14.5129C5.19598 14.2242 5.1021 13.9353 4.90541 13.7213L0.863193 9.32431C0.335967 8.75081 0.637961 7.82136 1.40159 7.66729L7.25632 6.48598C7.5412 6.4285 7.78698 6.24993 7.92968 5.99675L10.8624 0.793623Z" fill="#EDB92C"/>
</svg>
