<svg width="39" height="36" viewBox="0 0 39 36" fill="none" xmlns="http://www.w3.org/2000/svg">
<path d="M18.803 0.402045C18.9546 -0.0545723 19.6005 -0.0545709 19.7521 0.402046L23.9471 13.0383C24.015 13.2428 24.2062 13.3807 24.4216 13.3807H37.9737C38.4607 13.3807 38.6603 14.006 38.2635 14.2882L27.3182 22.0712C27.1392 22.1985 27.0642 22.4278 27.1335 22.6363L31.3185 35.2425C31.4708 35.7013 30.9482 36.0876 30.5542 35.8075L19.5673 27.9949C19.3938 27.8715 19.1613 27.8715 18.9878 27.9949L8.00085 35.8075C7.60691 36.0876 7.08426 35.7013 7.23656 35.2425L11.4216 22.6363C11.4908 22.4278 11.4159 22.1985 11.2368 22.0712L0.291589 14.2882C-0.105268 14.006 0.094381 13.3807 0.581343 13.3807H14.1335C14.3489 13.3807 14.5401 13.2428 14.608 13.0383L18.803 0.402045Z" fill="white"/>
</svg>
