<svg width="49" height="49" viewBox="0 0 49 49" fill="none" xmlns="http://www.w3.org/2000/svg">
<path fill-rule="evenodd" clip-rule="evenodd" d="M24.2042 0.00381796C22.8019 0.0639528 21.8295 0.16592 20.6439 0.377148C14.961 1.38964 9.79613 4.44788 6.16166 8.95236C3.16491 12.6665 1.36461 17.1492 0.971666 21.8753C0.91144 22.5996 0.896195 22.9982 0.895886 23.8568C0.895558 24.7106 0.91254 25.1593 0.971589 25.8575C1.27266 29.4174 2.34992 32.8073 4.15837 35.8855L4.34157 36.1973L4.22205 36.546C4.11026 36.8721 3.94147 37.3698 3.03883 40.0345C2.84265 40.6136 2.20716 42.4874 1.62661 44.1985C1.04606 45.9096 0.442559 47.69 0.28552 48.1548L0 49L0.137916 48.9549C0.213754 48.9301 3.14143 48.0001 6.64385 46.8883C10.1463 45.7764 13.0815 44.8445 13.1666 44.8173L13.3212 44.7679L13.5043 44.8691C13.9741 45.1289 14.9212 45.5811 15.5688 45.8549C18.7489 47.1995 22.3793 47.8594 25.8348 47.7211C28.8617 47.5999 31.6646 46.9809 34.3738 45.8351C39.7077 43.5793 44.0694 39.4619 46.5978 34.2955C47.9946 31.4411 48.7648 28.5006 48.9757 25.2161C49.0081 24.7121 49.0081 23.0207 48.9757 22.5167C48.8615 20.738 48.602 19.1595 48.1605 17.5581C47.5937 15.5022 46.7332 13.4943 45.6334 11.6614C42.372 6.22587 37.0039 2.25094 30.8598 0.721932C29.3419 0.34418 27.9634 0.13479 26.3076 0.0304297C25.9949 0.0107102 24.4879 -0.00833919 24.2042 0.00381796ZM25.9409 4.01317C27.5135 4.09553 29.0182 4.3434 30.4809 4.76106C36.2375 6.40474 41.0037 10.5801 43.3694 16.0516C44.2409 18.0673 44.7453 20.1191 44.933 22.4114C44.9813 23.0011 44.9813 24.7318 44.933 25.3214C44.6708 28.5235 43.765 31.3574 42.1388 34.0631C41.2876 35.4794 40.1901 36.8595 38.9734 38.0434C35.6276 41.2992 31.2891 43.2795 26.6453 43.6707C25.4868 43.7683 24.0874 43.7575 22.9402 43.6422C20.0089 43.3475 17.1975 42.4217 14.6714 40.9192C14.5122 40.8245 14.2821 40.6825 14.1601 40.6035C13.9406 40.4616 13.9373 40.4603 13.861 40.4807C13.8185 40.4921 12.0868 41.0403 10.0127 41.6989C7.93859 42.3576 6.23475 42.8896 6.23475 42.8896C6.23475 42.8896 6.23767 42.8579 6.24961 42.8275C6.26156 42.7971 6.58231 41.8547 6.96239 40.7333C7.34246 39.6118 7.89596 37.9792 8.19236 37.1053L8.73131 35.5162L8.64619 35.4014C8.36781 35.0256 7.87825 34.2712 7.58621 33.768C6.24265 31.4527 5.394 28.9339 5.06288 26.2787C5.02712 25.9919 4.98496 25.5452 4.95179 25.1013C4.91964 24.671 4.91956 23.0633 4.95167 22.6316C5.02897 21.5926 5.12633 20.8582 5.30317 19.98C5.96708 16.6829 7.44912 13.6365 9.64349 11.0583C11.77 8.55983 14.4851 6.61361 17.5371 5.40018C19.5319 4.60703 21.7392 4.12685 23.9051 4.01489C24.3459 3.99211 25.5197 3.99112 25.9409 4.01317ZM16.5381 12.2152C16.184 12.2824 15.8414 12.4309 15.5688 12.6354C15.3708 12.7839 14.6961 13.4589 14.4638 13.7408C13.5249 14.8805 13.0341 16.1745 12.9413 17.7547C12.8587 19.1607 13.2518 20.741 14.1069 22.4401C14.4115 23.0454 14.6563 23.4668 15.0246 24.0196C15.1474 24.2039 15.3517 24.5183 15.4787 24.7184C17.9326 28.5852 21.0504 31.6488 24.2644 33.3513C25.3148 33.9077 27.7321 34.9021 29.1476 35.3601C30.101 35.6685 30.7058 35.8013 31.2669 35.8253C31.5675 35.8382 31.7419 35.8216 32.1894 35.7379C32.3507 35.7078 32.5565 35.6772 32.6467 35.67C32.9134 35.6488 33.196 35.5871 33.5247 35.4784C34.8309 35.0465 36.126 34.1683 36.6981 33.3265C36.8766 33.0638 37.085 32.5269 37.2417 31.9265C37.432 31.197 37.5004 30.4326 37.4038 30.114C37.3689 29.9985 37.2679 29.8864 37.0929 29.7684C36.9425 29.6671 35.2939 28.7816 33.7852 27.9918C32.0174 27.0664 31.6097 26.9056 31.2584 26.9949C31.038 27.0509 30.9141 27.1521 30.6582 27.4848C30.1928 28.0902 28.7254 29.7198 28.4928 29.8897C28.3641 29.9837 28.1746 30.0503 28.0357 30.0503C27.8317 30.0503 27.6685 29.9857 26.832 29.5738C25.7953 29.0632 25.3878 28.8332 24.6739 28.3556C23.3855 27.4936 22.1942 26.4031 21.1918 25.1683C20.5532 24.3815 19.8346 23.3132 19.3431 22.4198C19.1532 22.0745 19.1293 22.0041 19.1292 21.7888C19.1291 21.6308 19.1347 21.6047 19.1951 21.4824C19.2501 21.3713 19.3115 21.2989 19.5601 21.0521C19.9905 20.6246 20.684 19.849 20.8268 19.6353C20.9761 19.412 21.2098 18.9884 21.2669 18.8377C21.3016 18.7461 21.3092 18.6863 21.3089 18.5058C21.3085 18.2562 21.3289 18.3242 21.0045 17.491C20.9041 17.233 20.5116 16.1863 20.1323 15.1649C19.7529 14.1435 19.4094 13.2313 19.3689 13.1377C19.1985 12.7444 18.9833 12.4761 18.7451 12.3597C18.6149 12.2961 18.6143 12.2961 18.2255 12.2812C18.0113 12.2731 17.7146 12.2529 17.566 12.2363C17.1691 12.1922 16.7091 12.1827 16.5381 12.2152Z" fill="white"/>
</svg>
